# xmcd
# 
# Track frame offsets:
#     150
#     14025
#     24762
#     38012
#     49912
#     72020
#     89737
#     101605
#     125172
#     132027
#     144152
#     154770
# 
# Disc length: 2288
# 
# Revision: 0
# Processed by: cddbd v1.5.2PL0 Copyright (c) Steve Scherf et al.
# Submitted via: fre:ac v1.0.31
# 
DISCID=9d08ee0c
DTITLE=Clever and Smart - That's Allright Mama
DYEAR=1994
DGENRE=Blues
TTITLE0=That's Allright Mama
TTITLE1=Nobody But You Baby
TTITLE2=Keep Your Hands Off
TTITLE3=I'm Ready
TTITLE4=Around and Around
TTITLE5=Funky Star
TTITLE6=Swing Low Sweet Chariot
TTITLE7=Street Blues
TTITLE8=That Don't Move Me
TTITLE9=Rolling and Tumbling
TTITLE10=Got My Mojo Working
TTITLE11=Blackbird
EXTD=
EXTT0=
EXTT1=
EXTT2=
EXTT3=
EXTT4=
EXTT5=
EXTT6=
EXTT7=
EXTT8=
EXTT9=
EXTT10=
EXTT11=
PLAYORDER=
